<svg width="800" height="1200" viewBox="0 0 800 1200" xmlns="http://www.w3.org/2000/svg">
    <defs>
        <linearGradient id="bgParams" x1="0%" y1="0%" x2="0%" y2="100%">
            <stop offset="0%" style="stop-color:#e0f7fa;stop-opacity:1" />
            <stop offset="100%" style="stop-color:#b2ebf2;stop-opacity:1" />
        </linearGradient>
    </defs>
    <rect width="800" height="1200" fill="url(#bgParams)"/>
    <text x="400" y="80" text-anchor="middle" font-family="Microsoft YaHei" font-size="32" font-weight="bold" fill="#006064">Power to H2 to Power (跨季节储能)</text>
    <g transform="translate(0, 200) scale(1.0)">
    <path d="M400,240 L451.96,270 L400,300 L348.04,270 Z" fill="#a5d6a7" stroke="white" stroke-width="1"/><path d="M451.96,270 L400,300 L400,360 L451.96,330 Z" fill="#66bb6a" stroke="white" stroke-width="1"/><path d="M400,240 L348.04,270 L348.04,330 L400,300 Z" fill="#81c784" stroke="white" stroke-width="1"/><text x="400" y="220" text-anchor="middle" fill="#333" font-family="Arial" font-weight="bold" font-size="14">Green Power</text><line x1="425.98" y1="325" x2="503.92" y2="370" stroke="#fdd835" stroke-width="6" stroke-linecap="round" /><path d="M529.9,315 L581.86,345 L529.9,375 L477.94,345 Z" fill="#4dd0e1" stroke="white" stroke-width="1"/><path d="M581.86,345 L529.9,375 L529.9,435 L581.86,405 Z" fill="#00bcd4" stroke="white" stroke-width="1"/><path d="M529.9,315 L477.94,345 L477.94,405 L529.9,375 Z" fill="#26c6da" stroke="white" stroke-width="1"/><text x="529.9" y="295" text-anchor="middle" fill="#333" font-family="Arial" font-weight="bold" font-size="14">Electrolysis</text><line x1="503.92" y1="420" x2="382.68" y2="540" stroke="#e1bee7" stroke-width="6" stroke-linecap="round" /><path d="M356.7,445 L425.98,485 L356.7,525 L287.42,485 Z" fill="#e1bee7" stroke="white" stroke-width="1"/><path d="M425.98,485 L356.7,525 L356.7,605 L425.98,565 Z" fill="#ba68c8" stroke="white" stroke-width="1"/><path d="M356.7,445 L287.42,485 L287.42,565 L356.7,525 Z" fill="#ce93d8" stroke="white" stroke-width="1"/><text x="356.7" y="425" text-anchor="middle" fill="#333" font-family="Arial" font-weight="bold" font-size="14">Salt Cavern Storage</text><line x1="425.98" y1="545" x2="651.14" y2="505" stroke="#e1bee7" stroke-width="6" stroke-linecap="round" /><path d="M703.1,405 L763.72,440 L703.1,475 L642.48,440 Z" fill="#ff7043" stroke="white" stroke-width="1"/><path d="M763.72,440 L703.1,475 L703.1,545 L763.72,510 Z" fill="#e64a19" stroke="white" stroke-width="1"/><path d="M703.1,405 L642.48,440 L642.48,510 L703.1,475 Z" fill="#f4511e" stroke="white" stroke-width="1"/><text x="703.1" y="385" text-anchor="middle" fill="#333" font-family="Arial" font-weight="bold" font-size="14">H2 Gas Turbine</text><line x1="733.4100000000001" y1="507.5" x2="802.69" y2="547.5" stroke="#ffeb3b" stroke-width="6" stroke-linecap="round" /><path d="M833,490 L884.96,520 L833,550 L781.04,520 Z" fill="#ffeb3b" stroke="white" stroke-width="1"/><path d="M884.96,520 L833,550 L833,610 L884.96,580 Z" fill="#fbc02d" stroke="white" stroke-width="1"/><path d="M833,490 L781.04,520 L781.04,580 L833,550 Z" fill="#fdd835" stroke="white" stroke-width="1"/><text x="833" y="470" text-anchor="middle" fill="#333" font-family="Arial" font-weight="bold" font-size="14">Power Grid</text>
    </g>
    <!-- Decoration -->
    <text x="400" y="1150" text-anchor="middle" font-family="Arial" font-size="12" fill="#888">Generated by Gemini Agent</text>
    </svg>