<svg width="800" height="1200" viewBox="0 0 800 1200" xmlns="http://www.w3.org/2000/svg">
    <defs>
        <linearGradient id="bgParams" x1="0%" y1="0%" x2="0%" y2="100%">
            <stop offset="0%" style="stop-color:#e0f7fa;stop-opacity:1" />
            <stop offset="100%" style="stop-color:#b2ebf2;stop-opacity:1" />
        </linearGradient>
    </defs>
    <rect width="800" height="1200" fill="url(#bgParams)"/>
    <text x="400" y="80" text-anchor="middle" font-family="Microsoft YaHei" font-size="32" font-weight="bold" fill="#006064">Power to Liquid (绿色航煤)</text>
    <g transform="translate(0, 200) scale(1.0)">
    <path d="M400,240 L451.96,270 L400,300 L348.04,270 Z" fill="#a5d6a7" stroke="white" stroke-width="1"/><path d="M451.96,270 L400,300 L400,360 L451.96,330 Z" fill="#66bb6a" stroke="white" stroke-width="1"/><path d="M400,240 L348.04,270 L348.04,330 L400,300 Z" fill="#81c784" stroke="white" stroke-width="1"/><text x="400" y="220" text-anchor="middle" fill="#333" font-family="Arial" font-weight="bold" font-size="14">Green Power</text><line x1="425.98" y1="325" x2="503.92" y2="370" stroke="#fdd835" stroke-width="6" stroke-linecap="round" /><path d="M529.9,315 L581.86,345 L529.9,375 L477.94,345 Z" fill="#4dd0e1" stroke="white" stroke-width="1"/><path d="M581.86,345 L529.9,375 L529.9,435 L581.86,405 Z" fill="#00bcd4" stroke="white" stroke-width="1"/><path d="M529.9,315 L477.94,345 L477.94,405 L529.9,375 Z" fill="#26c6da" stroke="white" stroke-width="1"/><text x="529.9" y="295" text-anchor="middle" fill="#333" font-family="Arial" font-weight="bold" font-size="14">Electrolysis</text><path d="M400,410 L434.64,430 L400,450 L365.36,430 Z" fill="#bdbdbd" stroke="white" stroke-width="1"/><path d="M434.64,430 L400,450 L400,490 L434.64,470 Z" fill="#757575" stroke="white" stroke-width="1"/><path d="M400,410 L365.36,430 L365.36,470 L400,450 Z" fill="#9e9e9e" stroke="white" stroke-width="1"/><text x="400" y="390" text-anchor="middle" fill="#333" font-family="Arial" font-weight="bold" font-size="14">CO2 Capture</text><line x1="417.32" y1="440" x2="607.84" y2="460" stroke="#9e9e9e" stroke-width="6" stroke-linecap="round" /><line x1="555.88" y1="390" x2="633.8199999999999" y2="435" stroke="#e1bee7" stroke-width="6" stroke-linecap="round" /><path d="M659.8,390 L711.76,420 L659.8,450 L607.84,420 Z" fill="#90a4ae" stroke="white" stroke-width="1"/><path d="M711.76,420 L659.8,450 L659.8,510 L711.76,480 Z" fill="#607d8b" stroke="white" stroke-width="1"/><path d="M659.8,390 L607.84,420 L607.84,480 L659.8,450 Z" fill="#78909c" stroke="white" stroke-width="1"/><text x="659.8" y="370" text-anchor="middle" fill="#333" font-family="Arial" font-weight="bold" font-size="14">Fischer-Tropsch</text><line x1="685.78" y1="465" x2="763.72" y2="510" stroke="#263238" stroke-width="6" stroke-linecap="round" /><path d="M789.7,465 L841.66,495 L789.7,525 L737.74,495 Z" fill="#0277bd" stroke="white" stroke-width="1"/><path d="M841.66,495 L789.7,525 L789.7,585 L841.66,555 Z" fill="#014377" stroke="white" stroke-width="1"/><path d="M789.7,465 L737.74,495 L737.74,555 L789.7,525 Z" fill="#01579b" stroke="white" stroke-width="1"/><text x="789.7" y="445" text-anchor="middle" fill="#333" font-family="Arial" font-weight="bold" font-size="14">Refining</text><line x1="815.6800000000001" y1="540" x2="876.3" y2="575" stroke="#29b6f6" stroke-width="6" stroke-linecap="round" /><path d="M893.62,555 L928.26,575 L893.62,595 L858.98,575 Z" fill="#b3e5fc" stroke="white" stroke-width="1"/><path d="M928.26,575 L893.62,595 L893.62,635 L928.26,615 Z" fill="#4fc3f7" stroke="white" stroke-width="1"/><path d="M893.62,555 L858.98,575 L858.98,615 L893.62,595 Z" fill="#81d4fa" stroke="white" stroke-width="1"/><text x="893.62" y="535" text-anchor="middle" fill="#333" font-family="Arial" font-weight="bold" font-size="14">Green Kerosene</text>
    </g>
    <!-- Decoration -->
    <text x="400" y="1150" text-anchor="middle" font-family="Arial" font-size="12" fill="#888">Generated by Gemini Agent</text>
    </svg>