<svg width="800" height="1200" viewBox="0 0 800 1200" xmlns="http://www.w3.org/2000/svg">
    <defs>
        <linearGradient id="bgParams" x1="0%" y1="0%" x2="0%" y2="100%">
            <stop offset="0%" style="stop-color:#e0f7fa;stop-opacity:1" />
            <stop offset="100%" style="stop-color:#b2ebf2;stop-opacity:1" />
        </linearGradient>
    </defs>
    <rect width="800" height="1200" fill="url(#bgParams)"/>
    <text x="400" y="80" text-anchor="middle" font-family="Microsoft YaHei" font-size="32" font-weight="bold" fill="#006064">Power to Methane (电-气-热三网耦合)</text>
    <g transform="translate(0, 200) scale(1.0)">
    <path d="M400,240 L451.96,270 L400,300 L348.04,270 Z" fill="#a5d6a7" stroke="white" stroke-width="1"/><path d="M451.96,270 L400,300 L400,360 L451.96,330 Z" fill="#66bb6a" stroke="white" stroke-width="1"/><path d="M400,240 L348.04,270 L348.04,330 L400,300 Z" fill="#81c784" stroke="white" stroke-width="1"/><text x="400" y="220" text-anchor="middle" fill="#333" font-family="Arial" font-weight="bold" font-size="14">Renewables (Wind/Solar)</text><line x1="425.98" y1="345" x2="503.92" y2="390" stroke="#fdd835" stroke-width="6" stroke-linecap="round" /><path d="M529.9,315 L581.86,345 L529.9,375 L477.94,345 Z" fill="#4dd0e1" stroke="white" stroke-width="1"/><path d="M581.86,345 L529.9,375 L529.9,435 L581.86,405 Z" fill="#00bcd4" stroke="white" stroke-width="1"/><path d="M529.9,315 L477.94,345 L477.94,405 L529.9,375 Z" fill="#26c6da" stroke="white" stroke-width="1"/><text x="529.9" y="295" text-anchor="middle" fill="#333" font-family="Arial" font-weight="bold" font-size="14">Electrolysis (H2)</text><path d="M400,410 L434.64,430 L400,450 L365.36,430 Z" fill="#bdbdbd" stroke="white" stroke-width="1"/><path d="M434.64,430 L400,450 L400,490 L434.64,470 Z" fill="#757575" stroke="white" stroke-width="1"/><path d="M400,410 L365.36,430 L365.36,470 L400,450 Z" fill="#9e9e9e" stroke="white" stroke-width="1"/><text x="400" y="390" text-anchor="middle" fill="#333" font-family="Arial" font-weight="bold" font-size="14">CO2 Capture</text><line x1="417.32" y1="440" x2="495.26" y2="395" stroke="#9e9e9e" stroke-width="6" stroke-linecap="round" /><line x1="555.88" y1="400" x2="633.8199999999999" y2="445" stroke="#e1bee7" stroke-width="6" stroke-linecap="round" /><path d="M659.8,380 L720.4200000000001,415 L659.8,450 L599.1800000000001,415 Z" fill="#ffcc80" stroke="white" stroke-width="1"/><path d="M720.4200000000001,415 L659.8,450 L659.8,520 L720.4200000000001,485 Z" fill="#ffa726" stroke="white" stroke-width="1"/><path d="M659.8,380 L599.1800000000001,415 L599.1800000000001,485 L659.8,450 Z" fill="#ffb74d" stroke="white" stroke-width="1"/><text x="659.8" y="360" text-anchor="middle" fill="#333" font-family="Arial" font-weight="bold" font-size="14">Methanation</text><line x1="690.11" y1="482.5" x2="759.39" y2="522.5" stroke="#8d6e63" stroke-width="6" stroke-linecap="round" /><path d="M781.04,480 L824.3399999999999,505 L781.04,530 L737.74,505 Z" fill="#8d6e63" stroke="white" stroke-width="1"/><path d="M824.3399999999999,505 L781.04,530 L781.04,580 L824.3399999999999,555 Z" fill="#6d4c41" stroke="white" stroke-width="1"/><path d="M781.04,480 L737.74,505 L737.74,555 L781.04,530 Z" fill="#795548" stroke="white" stroke-width="1"/><text x="781.04" y="460" text-anchor="middle" fill="#333" font-family="Arial" font-weight="bold" font-size="14">Gas Grid (CH4)</text><line x1="703.1" y1="445" x2="833" y2="450" stroke="#ffab91" stroke-width="6" stroke-linecap="round" /><path d="M858.98,435 L902.28,460 L858.98,485 L815.6800000000001,460 Z" fill="#ffab91" stroke="white" stroke-width="1"/><path d="M902.28,460 L858.98,485 L858.98,535 L902.28,510 Z" fill="#ff7043" stroke="white" stroke-width="1"/><path d="M858.98,435 L815.6800000000001,460 L815.6800000000001,510 L858.98,485 Z" fill="#ff8a65" stroke="white" stroke-width="1"/><text x="858.98" y="415" text-anchor="middle" fill="#333" font-family="Arial" font-weight="bold" font-size="14">Distict Heating</text>
    </g>
    <!-- Decoration -->
    <text x="400" y="1150" text-anchor="middle" font-family="Arial" font-size="12" fill="#888">Generated by Gemini Agent</text>
    </svg>